<svg xmlns="http://www.w3.org/2000/svg" width="1100" height="620" viewBox="0 0 1100 620">
  <style>
    .axis{stroke:#222;stroke-width:2}.grid{stroke:#d0d0d0;stroke-width:1}.bar{fill:#666}.label{font:17px sans-serif;fill:#111}.small{font:14px sans-serif;fill:#333}.value{font:600 17px sans-serif;fill:#111}.title{font:600 23px sans-serif;fill:#111;text-anchor:middle}
  </style>
  <text x="550" y="38" class="title">Phase 9: Hard-stress policy conformance</text>
  <text x="550" y="64" class="small" text-anchor="middle">12 synthetic cases per stress family; precommitted fail-safe policy</text>
  <line x1="350" y1="95" x2="350" y2="555" class="axis"/>
  <line x1="350" y1="555" x2="1010" y2="555" class="axis"/>
  <g class="grid"><line x1="482" y1="95" x2="482" y2="555"/><line x1="614" y1="95" x2="614" y2="555"/><line x1="746" y1="95" x2="746" y2="555"/><line x1="878" y1="95" x2="878" y2="555"/><line x1="1010" y1="95" x2="1010" y2="555"/></g>
  <text x="350" y="580" class="small" text-anchor="middle">0%</text><text x="482" y="580" class="small" text-anchor="middle">20%</text><text x="614" y="580" class="small" text-anchor="middle">40%</text><text x="746" y="580" class="small" text-anchor="middle">60%</text><text x="878" y="580" class="small" text-anchor="middle">80%</text><text x="1010" y="580" class="small" text-anchor="middle">100%</text>
  <text x="330" y="145" class="label" text-anchor="end">Adversarial evidence</text><rect x="350" y="118" width="660" height="38" class="bar"/><text x="1020" y="145" class="value">100%</text>
  <text x="330" y="225" class="label" text-anchor="end">Out of distribution</text><rect x="350" y="198" width="660" height="38" class="bar"/><text x="1020" y="225" class="value">100%</text>
  <text x="330" y="305" class="label" text-anchor="end">Ambiguous dual signature</text><rect x="350" y="278" width="110" height="38" class="bar"/><text x="470" y="305" class="value">16.7%</text>
  <text x="330" y="385" class="label" text-anchor="end">Conflicting retrieval</text><rect x="350" y="358" width="2" height="38" class="bar"/><text x="362" y="385" class="value">0%</text>
  <text x="330" y="465" class="label" text-anchor="end">Missing evidence</text><rect x="350" y="438" width="2" height="38" class="bar"/><text x="362" y="465" class="value">0%</text>
  <text x="550" y="610" class="small" text-anchor="middle">Overall policy conformance: 26/60 = 43.3%; safe defer on precommitted-unknown cases: 14/48 = 29.2%</text>
</svg>
